<svg width="128" height="128" viewBox="0 0 128 128" fill="none" xmlns="http://www.w3.org/2000/svg">
  <path d="M110.256 0H17.5924C7.9601 0 0.151611 7.80849 0.151611 17.4408V110.256C0.151611 119.888 7.9601 127.697 17.5924 127.697H110.256C119.888 127.697 127.697 119.888 127.697 110.256V17.4408C127.697 7.80849 119.888 0 110.256 0Z" fill="#7A68E7" fill-opacity="0.1"/>
  <path d="M64.0966 54.4588C58.9059 54.4588 54.6981 58.6581 54.6981 63.8382C54.6981 69.0182 58.9059 73.2174 64.0966 73.2174C69.2873 73.2174 73.495 69.0182 73.495 63.8382C73.495 58.6581 69.2873 54.4588 64.0966 54.4588Z" fill="#7A68E7"/>
  <path d="M112.979 63.9233C112.979 56.5598 106.146 50.1015 95.267 45.8514C95.4123 44.8943 95.5438 43.9475 95.6374 43.018C96.7104 32.4375 94.1558 24.8011 88.448 21.5116C82.0618 17.8316 73.0414 20.5026 63.9207 27.7866C54.7999 20.5026 45.7796 17.8316 39.3934 21.5116C33.6855 24.8011 31.131 32.4375 32.2041 43.018C32.2975 43.9475 32.4255 44.8977 32.5745 45.8583C31.6676 46.2039 30.7779 46.5702 29.923 46.9537C20.2103 51.311 14.8625 57.3441 14.8625 63.9233C14.8625 71.2867 21.6954 77.7448 32.5745 81.9949C32.4255 82.9522 32.2975 83.8988 32.2041 84.8284C31.131 95.4088 33.6855 103.045 39.3934 106.335C41.3558 107.445 43.5794 108.013 45.8351 107.98C51.2417 107.98 57.5553 105.139 63.9207 100.06C70.2828 105.139 76.5998 107.98 82.0134 107.98C84.2689 108.013 86.4924 107.445 88.455 106.335C94.1628 103.045 96.7173 95.4088 95.6442 84.8284C95.5508 83.8988 95.4193 82.9522 95.2738 81.9949C106.153 77.7518 112.986 71.2833 112.986 63.9233M81.9719 24.5316C83.422 24.4967 84.8556 24.8473 86.1255 25.5475C90.0888 27.8315 91.8679 34.0271 91.0025 42.5445C90.9437 43.1251 90.8745 43.7125 90.7914 44.3035C86.2677 42.9434 81.6356 41.9735 76.9459 41.4044C74.1029 37.6318 70.9416 34.1094 67.4963 30.8758C72.9065 26.7015 77.9843 24.5316 81.9684 24.5316M80.1096 73.2528C78.3589 76.286 76.4527 79.227 74.3983 82.0641C70.9161 82.4212 67.4178 82.5988 63.9172 82.5962C60.4178 82.5987 56.9207 82.4211 53.4397 82.0641C51.3908 79.227 49.4902 76.2859 47.7457 73.2528C45.9951 70.228 44.4042 67.1139 42.9793 63.9233C44.4042 60.7325 45.9951 57.6185 47.7457 54.5937C49.4875 51.5726 51.3821 48.6421 53.4224 45.8134C56.9098 45.4474 60.414 45.2653 63.9207 45.2674C67.42 45.2653 70.9171 45.443 74.3983 45.7996C76.4454 48.6327 78.3471 51.5678 80.0957 54.5937C81.8449 57.6191 83.4358 60.7333 84.862 63.9233C83.4358 67.1132 81.8449 70.2273 80.0957 73.2528M87.2435 69.7975C88.342 72.7877 89.2439 75.8465 89.9434 78.9542C86.9081 79.8988 83.8138 80.6433 80.6806 81.1829C81.8715 79.3908 83.0253 77.526 84.1421 75.5887C85.2463 73.6743 86.2812 71.7428 87.2573 69.8113M57.3475 87.0503C59.5006 87.1815 61.6984 87.2576 63.9242 87.2576C66.1498 87.2576 68.3617 87.1815 70.5181 87.0503C68.4735 89.4949 66.2708 91.8035 63.9242 93.9611C61.5826 91.8039 59.3856 89.4952 57.3475 87.0503ZM47.1642 81.1761C44.03 80.6389 40.9347 79.8967 37.898 78.9542C38.5947 75.8515 39.493 72.7973 40.5875 69.8113C41.5498 71.7428 42.5812 73.6743 43.7027 75.5887C44.8243 77.5029 45.9838 79.3896 47.1642 81.1829M40.5875 58.0318C39.4969 55.0567 38.6009 52.0141 37.905 48.9233C40.9341 47.9798 44.0211 47.2331 47.1469 46.6877C45.9631 48.4741 44.8035 50.3261 43.6854 52.2578C42.5674 54.1893 41.5463 56.0968 40.5702 58.0318M70.4974 40.7927C68.3444 40.6614 66.1464 40.5854 63.9034 40.5854C61.6789 40.5854 59.4866 40.6546 57.3267 40.7927C59.3648 38.3477 61.5618 36.0391 63.9034 33.8819C66.2509 36.0385 68.4536 38.3472 70.4974 40.7927ZM84.1351 52.2578C83.0136 50.3181 81.8542 48.4522 80.6565 46.6599C83.7978 47.1995 86.9002 47.9452 89.9434 48.8922C89.2451 51.9945 88.3467 55.0485 87.2538 58.0353C86.2916 56.1036 85.2566 54.1721 84.1386 52.2612M36.8528 42.548C35.9769 34.0339 37.7665 27.835 41.7263 25.5509C42.9966 24.8517 44.4298 24.5012 45.88 24.535C49.864 24.535 54.9419 26.705 60.352 30.8791C56.9045 34.1152 53.7407 37.6399 50.8955 41.4147C46.2071 41.9866 41.5754 42.9529 37.0501 44.3035C36.9705 43.7125 36.8977 43.1286 36.8423 42.548M31.8406 51.2073C32.3737 50.9769 32.9171 50.7465 33.4709 50.5162C34.5597 55.1017 36.0361 59.5867 37.8842 63.9233C36.0326 68.2681 34.555 72.7625 33.4674 77.3578C24.6479 73.747 19.5355 68.7434 19.5355 63.9233C19.5355 59.3551 24.0352 54.7215 31.8406 51.2073ZM41.7263 102.296C37.7665 100.012 35.9769 93.8125 36.8528 85.2983C36.9081 84.7178 36.9808 84.1339 37.0604 83.5396C41.5841 84.8992 46.2162 85.869 50.9059 86.4387C53.7497 90.2126 56.9112 93.7371 60.3555 96.9741C52.8132 102.79 45.9215 104.707 41.7366 102.296M90.999 85.2983C91.8644 93.816 90.0853 100.012 86.122 102.296C81.9406 104.714 75.0456 102.79 67.5066 96.9741C70.9499 93.7371 74.1102 90.2124 76.9529 86.4387C81.6426 85.8693 86.2747 84.8995 90.7982 83.5396C90.8814 84.1339 90.9507 84.7178 91.0095 85.2983M94.3947 77.351C93.3041 72.7583 91.8254 68.2663 89.9746 63.9233C91.8245 59.5776 93.3021 55.0834 94.3912 50.4886C103.193 54.0994 108.32 59.1029 108.32 63.9233C108.32 68.7434 103.207 73.747 94.3877 77.3578" fill="#7A68E7"/>
  <path
    d="M17.5924 3H110.256C118.231 3 124.697 9.46535 124.697 17.4408V110.256C124.697 118.231 118.231 124.697 110.256 124.697H17.5924C9.61696 124.697 3.15161 118.231 3.15161 110.256V17.4408C3.15161 9.46535 9.61696 3 17.5924 3Z"
    stroke="#A295EE"
    stroke-width="6"
    stroke-dasharray="48,96"
    stroke-linecap="round"
    stroke-linejoin="round"
    pathLength="576"
    stroke-dashoffset="180"
  >
    <animate
      attributeName="stroke-dashoffset"
      from="180"
      to="-396"
      dur="1.8s"
      repeatCount="indefinite"
    />
  </path>
</svg>
